# xmcd
#
# Track frame offsets: 
#        150
#        13265
#        25318
#        41366
#        54424
#        64271
#        81811
#        92370
#        107673
#        118458
#        131158
#        142593
#        157031
#        169975
#        179775
#        190981
#        201742
#        210592
#        222043
#        232549
#        245324
#        257543
#        263942
#        277945
#        287394
#
# Disc length: 3979 seconds
#
# Revision: 4
# Processed by: cddbd v1.5.2PL0 Copyright (c) Steve Scherf et al.
# Submitted via: ExactAudioCopyFreeDBPlugin 1.0
#
DISCID=690f8919
DTITLE=Various Artist - The Stax Story:  1958-1962 [Real Gone Music]
DYEAR=2006
DGENRE=Soul
TTITLE0=Booker T. and The M.G.'s - Green Onions
TTITLE1=Booker T. and The M.G.'s - Rinky Dink
TTITLE2=Booker T. and The M.G.'s - I Got a Woman
TTITLE3=Booker T. and The M.G.'s - Mo' Onions
TTITLE4=Booker T. and The M.G.'s - Twist and Shout
TTITLE5=Booker T. and The M.G.'s  - Behave Yourself
TTITLE6=Booker T. and The M.G.'s - Stranger on the Shore
TTITLE7=Booker T. and The M.G.'s - Lonely Avenue
TTITLE8=Booker T. and The M.G.'s - One Who Really Loves You
TTITLE9=Booker T. and The M.G.'s - You Can't Sit Down
TTITLE10=Booker T. and The M.G.'s - A Woman, a Lover, a Friend
TTITLE11=Booker T. and The M.G.'s - Comin' Home Baby
TTITLE12=Gus Cannon - Narration
TTITLE13=Gus Cannon - Kill It
TTITLE14=Gus Cannon - Walk Right In
TTITLE15=Gus Cannon - Salty Dog
TTITLE16=Gus Cannon - Going Around the Mountain
TTITLE17=Gus Cannon - Ol' Hen
TTITLE18=Gus Cannon - Gonna Raise a Ruckus Tonight
TTITLE19=Gus Cannon - Ain't Gonna Rain No More
TTITLE20=Gus Cannon - Boll Wevil
TTITLE21=Gus Cannon - Come on Down to My House
TTITLE22=Gus Cannon - Make Me a Pallet on Your Floor
TTITLE23=Gus Cannon - Get Up in the Morning Soon
TTITLE24=Gus Cannon - Crawad Hole
EXTD=
EXTT0=
EXTT1=
EXTT2=
EXTT3=
EXTT4=
EXTT5=
EXTT6=
EXTT7=
EXTT8=
EXTT9=
EXTT10=
EXTT11=
EXTT12=
EXTT13=
EXTT14=
EXTT15=
EXTT16=
EXTT17=
EXTT18=
EXTT19=
EXTT20=
EXTT21=
EXTT22=
EXTT23=
EXTT24=
PLAYORDER=
